<?xml version="1.0" encoding="UTF-8"?>
<svg xmlns="http://www.w3.org/2000/svg" width="368.93" height="135.49" viewBox="0 0 368.93 135.49">
  <title>logo-white</title>
  <path d="M68.05,16.16A51.89,51.89,0,1,0,119.93,68,51.88,51.88,0,0,0,68.05,16.16Z" transform="translate(0 0)" fill="#54bf66"></path>
  <path d="M66.12,0a67.74,67.74,0,1,0,67.19,84.76,4,4,0,1,0-7.75-2,59.78,59.78,0,1,1,1.77-19.06H104.45V49.4a6.83,6.83,0,0,0-6.21-6.8L67.61,39.77V57.71L77.35,63v-3.3c0-1.1.84-1.55,1.87-1L88,63.38V60c0-1.06.66-1.25,1.47-.42L99,69.4c.8.83.61,1.34-.44,1.14l-8.25-1.6v4.47c0,1.11-.84,1.55-1.87,1l-6.67-3.6V77c0,1.07-.82,1.5-1.81,1l-12.3-6.64V95.72l30.63-2.83a6.83,6.83,0,0,0,6.21-6.81V71.75H133.2a2.26,2.26,0,0,0,2.27-2.18q0-.91,0-1.83A67.75,67.75,0,0,0,66.12,0ZM55.85,37.11V98.38a4.18,4.18,0,1,0,8.36,0V37.11a4.18,4.18,0,1,0-8.36,0ZM31.05,79.54a3.73,3.73,0,0,0,3.72,3.72H52.46V75.82H34.77A3.73,3.73,0,0,0,31.05,79.54ZM52.46,52.23H34.77a3.72,3.72,0,1,0,0,7.44H52.46Z" transform="translate(0 0)" fill="#fff" fill-rule="evenodd"></path>
  <path d="M172.59,89.71A20.92,20.92,0,0,1,162,87.14a17.22,17.22,0,0,1-6.86-7.3,24.34,24.34,0,0,1-2.4-11.15,24.28,24.28,0,0,1,2.41-11.09,18.22,18.22,0,0,1,6.75-7.46,19.11,19.11,0,0,1,10.2-2.67,21,21,0,0,1,7.16,1.21,16.43,16.43,0,0,1,6,3.74,17.71,17.71,0,0,1,4.09,6.43,26.1,26.1,0,0,1,1.49,9.28v3H157.25v-6.5h24.29a10.49,10.49,0,0,0-1.2-4.94,8.72,8.72,0,0,0-3.26-3.42A9.26,9.26,0,0,0,172.22,55,9.47,9.47,0,0,0,167,56.4a9.86,9.86,0,0,0-3.47,3.73,10.71,10.71,0,0,0-1.27,5.05v5.67A13.22,13.22,0,0,0,163.59,77a9.16,9.16,0,0,0,3.65,3.89,10.78,10.78,0,0,0,5.48,1.35,11.37,11.37,0,0,0,3.81-.6,8.35,8.35,0,0,0,3-1.77,7.57,7.57,0,0,0,1.89-2.91l9,1a14.07,14.07,0,0,1-3.23,6.22,15.65,15.65,0,0,1-6.09,4.1A23,23,0,0,1,172.59,89.71Z" transform="translate(0 0)" fill="#fff"></path>
  <path d="M233.52,48,219,88.91H208.3L193.73,48H204l9.41,30.39h.42L223.27,48Z" transform="translate(0 0)" fill="#fff"></path>
  <path d="M255.81,105.1a25.5,25.5,0,0,1-8.92-1.4,15.93,15.93,0,0,1-6-3.74,12.93,12.93,0,0,1-3.15-5.19l8.69-2.11a9.88,9.88,0,0,0,1.7,2.39,8.7,8.7,0,0,0,3,2,12.81,12.81,0,0,0,4.81.78,11.13,11.13,0,0,0,6.79-2c1.8-1.32,2.69-3.49,2.69-6.51V81.56H265a13.79,13.79,0,0,1-2.17,3.06,11.34,11.34,0,0,1-3.75,2.64,14.13,14.13,0,0,1-5.85,1.06,16.65,16.65,0,0,1-8.53-2.22,15.6,15.6,0,0,1-6.08-6.66,24.46,24.46,0,0,1-2.25-11.12,26,26,0,0,1,2.25-11.39,16.6,16.6,0,0,1,6.09-7,15.7,15.7,0,0,1,8.55-2.41,12.72,12.72,0,0,1,5.92,1.21,11.58,11.58,0,0,1,3.72,2.9,16.66,16.66,0,0,1,2.1,3.18h.54V48H275V89.57a14.39,14.39,0,0,1-2.5,8.69,15.07,15.07,0,0,1-6.84,5.14A27,27,0,0,1,255.81,105.1Zm.08-24.34a9,9,0,0,0,5.22-1.49A9.27,9.27,0,0,0,264.39,75a18.19,18.19,0,0,0,1.12-6.71,18.91,18.91,0,0,0-1.11-6.77A9.88,9.88,0,0,0,261.15,57a9.45,9.45,0,0,0-10.64.06,10.17,10.17,0,0,0-3.25,4.6,18.72,18.72,0,0,0-1.09,6.62,17.78,17.78,0,0,0,1.11,6.56,9.39,9.39,0,0,0,3.27,4.37A8.92,8.92,0,0,0,255.89,80.76Z" transform="translate(0 0)" fill="#fff"></path>
  <path d="M284.17,88.91V48h9.35v6.82H294a10.23,10.23,0,0,1,3.84-5.48A10.62,10.62,0,0,1,304,47.41c.53,0,1.13,0,1.8.07a12.17,12.17,0,0,1,1.66.2v8.87a11.14,11.14,0,0,0-1.93-.39A20.57,20.57,0,0,0,303,56a9.81,9.81,0,0,0-4.73,1.13A8.54,8.54,0,0,0,295,60.25a8.78,8.78,0,0,0-1.2,4.61v24Z" transform="translate(0 0)" fill="#fff"></path>
  <path d="M318,42.19a5.59,5.59,0,0,1-3.94-1.53,5,5,0,0,1,0-7.4,5.85,5.85,0,0,1,7.89,0,5,5,0,0,1,0,7.4A5.58,5.58,0,0,1,318,42.19Zm-4.85,46.72V48h9.64V88.91Z" transform="translate(0 0)" fill="#fff"></path>
  <path d="M347.15,89.63a15.51,15.51,0,0,1-8.63-2.48,16.88,16.88,0,0,1-6-7.19,26.88,26.88,0,0,1-2.21-11.45A26.53,26.53,0,0,1,332.54,57a16.48,16.48,0,0,1,6.09-7.11,15.68,15.68,0,0,1,8.55-2.41,12.71,12.71,0,0,1,5.91,1.21,11.51,11.51,0,0,1,3.68,2.9,18.83,18.83,0,0,1,2.1,3.18h.4V34.36h9.67V88.91h-9.48V82.46h-.59a16.2,16.2,0,0,1-2.16,3.16A11.66,11.66,0,0,1,353,88.45,12.74,12.74,0,0,1,347.15,89.63Zm2.69-7.91a8.3,8.3,0,0,0,5.22-1.67,10.26,10.26,0,0,0,3.28-4.65,19.82,19.82,0,0,0,1.12-7,19.5,19.5,0,0,0-1.11-6.9A10,10,0,0,0,355.1,57a9.43,9.43,0,0,0-10.64,0,10.19,10.19,0,0,0-3.25,4.64,19.37,19.37,0,0,0-1.09,6.76,19.77,19.77,0,0,0,1.1,6.83A10.5,10.5,0,0,0,344.5,80,8.38,8.38,0,0,0,349.84,81.72Z" transform="translate(0 0)" fill="#fff"></path>
</svg>
